<svg xmlns="http://www.w3.org/2000/svg" viewBox="0 0 32 32" width="32" height="32">
  <rect width="32" height="32" rx="7" fill="#0b0b0e"/>
  <!-- exhaust flame -->
  <path d="M16 22c1.2 1.4 1.9 2.9 1.9 4.4 0 1.1-.85 1.9-1.9 1.9s-1.9-.8-1.9-1.9c0-1.5.7-3 1.9-4.4z" fill="#f59e0b"/>
  <!-- rocket body -->
  <path d="M16 3.2c3.4 2.6 5.1 6.4 5.1 10.8 0 2.4-.6 4.6-1.7 6.4h-6.8c-1.1-1.8-1.7-4-1.7-6.4 0-4.4 1.7-8.2 5.1-10.8z" fill="#f5f3ef"/>
  <!-- left fin -->
  <path d="M12.5 17.4 8.6 21.4l.3-5 3.2-1.4z" fill="#e5484d"/>
  <!-- right fin -->
  <path d="M19.5 17.4 23.4 21.4l-.3-5-3.2-1.4z" fill="#e5484d"/>
  <!-- nose cone -->
  <path d="M16 3.2c1.9 1.45 3.3 3.3 4.2 5.5H11.8c.9-2.2 2.3-4.05 4.2-5.5z" fill="#e5484d"/>
  <!-- window -->
  <circle cx="16" cy="12.4" r="2.2" fill="#0b0b0e"/>
  <circle cx="16" cy="12.4" r="1" fill="#7cc7ff"/>
</svg>
